# xmcd
#
# Track frame offsets: 
#        150
#        18371
#        37514
#        53319
#        69631
#        95973
#        112765
#        127391
#        151420
#        178048
#        199953
#
# Disc length: 3102 seconds
#
# Revision: 1
# Processed by: cddbd v1.5.2PL0 Copyright (c) Steve Scherf et al.
# Submitted via: ExactAudioCopyFreeDBPlugin 1.0
#
DISCID=8e0c1c0b
DTITLE=Various Artist - schöner hören vol #17
DYEAR=2004
DGENRE=Jazz
TTITLE0=Duncan Sheik - Good morning !
TTITLE1=The Cardigans - Live and learn
TTITLE2=Joel Harrison - Lonesome road blues
TTITLE3=Benjamin Biolay - Chaise à Tokyo
TTITLE4=Ben Harper - Amen omen
TTITLE5=Malia - Yellow daffodils
TTITLE6=Marla Glen - Mad
TTITLE7=Bill Frisell - Baba drame
TTITLE8=Man Doki played byThe Strurcz Quartett - Look up to the sky
TTITLE9=David Axelrod - The fly
TTITLE10=Erwin Pelzig - Geschichte und Religion
EXTD=YEAR: 2004
EXTT0=
EXTT1=
EXTT2=
EXTT3=
EXTT4=
EXTT5=
EXTT6=
EXTT7=
EXTT8=
EXTT9=
EXTT10=
PLAYORDER=
